<svg width="119" height="119" viewBox="0 0 119 119" fill="none" xmlns="http://www.w3.org/2000/svg">
<path d="M94.2084 24.7917H74.375C71.745 24.7917 69.2226 25.8365 67.3629 27.6963C65.5032 29.556 64.4584 32.0784 64.4584 34.7084V54.5417C64.4584 57.1718 65.5032 59.6942 67.3629 61.5539C69.2226 63.4136 71.745 64.4584 74.375 64.4584H89.25V69.4167C89.2946 71.7437 88.5194 74.0122 87.0599 75.8252C85.6005 77.6381 83.5499 78.88 81.2671 79.3334C80.7163 79.4576 80.2244 79.7662 79.8728 80.208C79.5211 80.6498 79.3308 81.1984 79.3334 81.763V91.6797C79.3365 92.0349 79.413 92.3856 79.5581 92.7098C79.7031 93.034 79.9136 93.3248 80.1763 93.5638C80.4369 93.7961 80.7446 93.9695 81.0783 94.0722C81.412 94.1749 81.7639 94.2044 82.11 94.1588C88.1843 93.4743 93.7916 90.5697 97.8549 86.003C101.918 81.4363 104.151 75.5294 104.125 69.4167V34.7084C104.125 32.0784 103.08 29.556 101.221 27.6963C99.3608 25.8365 96.8384 24.7917 94.2084 24.7917Z" fill="#66BD90"/>
<path d="M54.5417 69.4167V34.7084C54.5417 32.0784 53.4969 29.556 51.6371 27.6963C49.7774 25.8365 47.2551 24.7917 44.625 24.7917H24.7917C22.1616 24.7917 19.6393 25.8365 17.7795 27.6963C15.9198 29.556 14.875 32.0784 14.875 34.7084V54.5417C14.875 57.1718 15.9198 59.6942 17.7795 61.5539C19.6393 63.4136 22.1616 64.4584 24.7917 64.4584H39.6667V69.4167C39.7113 71.7437 38.936 74.0122 37.4766 75.8252C36.0171 77.6381 33.9665 78.88 31.6838 79.3334C31.1492 79.4536 30.6696 79.7475 30.3197 80.1691C29.9699 80.5907 29.7695 81.1163 29.75 81.6638V91.5805C29.7318 91.9605 29.7979 92.3399 29.9437 92.6914C30.0894 93.0429 30.3111 93.3577 30.5929 93.6134C30.8536 93.8457 31.1612 94.0191 31.4949 94.1218C31.8286 94.2245 32.1805 94.254 32.5267 94.2084C38.6095 93.5229 44.2237 90.6113 48.2882 86.0342C52.3527 81.457 54.5802 75.538 54.5417 69.4167Z" fill="#29423B"/>
</svg>
